<mxfile host="Electron" agent="Mozilla/5.0 (Windows NT 10.0; Win64; x64) AppleWebKit/537.36 (KHTML, like Gecko) draw.io/28.0.6 Chrome/138.0.7204.100 Electron/37.2.3 Safari/537.36" version="28.0.6">
  <diagram id="7wCMqW6LWs0s4PFNLyFB" name="Page-1">
    <mxGraphModel dx="1111" dy="1637" grid="1" gridSize="10" guides="1" tooltips="1" connect="1" arrows="1" fold="1" page="1" pageScale="1" pageWidth="850" pageHeight="1100" math="0" shadow="0">
      <root>
        <mxCell id="0" />
        <mxCell id="1" parent="0" />
        <mxCell id="4nMmPLkfGjs8XgZqR72R-67" value="&lt;font style=&quot;font-size: 14px;&quot;&gt;Population Reporting System&lt;/font&gt;" style="shape=umlFrame;whiteSpace=wrap;html=1;pointerEvents=0;recursiveResize=0;container=1;collapsible=0;width=230;strokeWidth=3;height=40;" vertex="1" parent="1">
          <mxGeometry x="290" y="-460" width="790" height="1180" as="geometry" />
        </mxCell>
        <mxCell id="6" value="Get Countries Reports" style="ellipse;whiteSpace=wrap;html=1;" parent="1" vertex="1">
          <mxGeometry x="462.5" y="-350" width="165" height="60" as="geometry" />
        </mxCell>
        <mxCell id="7" value="Data Analyst" style="shape=umlActor;verticalLabelPosition=bottom;verticalAlign=top;html=1;" parent="1" vertex="1">
          <mxGeometry x="210" y="60" width="60" height="90" as="geometry" />
        </mxCell>
        <mxCell id="8" value="Get Top N Countries Reports" style="ellipse;whiteSpace=wrap;html=1;" parent="1" vertex="1">
          <mxGeometry x="463.75" y="-220" width="167.5" height="60" as="geometry" />
        </mxCell>
        <mxCell id="9" value="Get Cities Reports" style="ellipse;whiteSpace=wrap;html=1;" parent="1" vertex="1">
          <mxGeometry x="462.5" y="-90" width="170" height="60" as="geometry" />
        </mxCell>
        <mxCell id="10" value="Get Top N Cities Reports" style="ellipse;whiteSpace=wrap;html=1;" parent="1" vertex="1">
          <mxGeometry x="457.5" y="40" width="180" height="60" as="geometry" />
        </mxCell>
        <mxCell id="11" value="Get Capital Cities Reports" style="ellipse;whiteSpace=wrap;html=1;" parent="1" vertex="1">
          <mxGeometry x="457.5" y="130" width="180" height="60" as="geometry" />
        </mxCell>
        <mxCell id="12" value="Get Top N Capital Cities Reports" style="ellipse;whiteSpace=wrap;html=1;" parent="1" vertex="1">
          <mxGeometry x="465" y="250" width="160" height="60" as="geometry" />
        </mxCell>
        <mxCell id="13" value="Get Population Reports" style="ellipse;whiteSpace=wrap;html=1;" parent="1" vertex="1">
          <mxGeometry x="462.5" y="449" width="165" height="60" as="geometry" />
        </mxCell>
        <mxCell id="14" value="Get Language Population Reports" style="ellipse;whiteSpace=wrap;html=1;" parent="1" vertex="1">
          <mxGeometry x="457.5" y="560" width="170" height="80" as="geometry" />
        </mxCell>
        <mxCell id="17" value="&amp;lt;&amp;lt;include&amp;gt;&amp;gt;" style="html=1;verticalAlign=bottom;labelBackgroundColor=none;endArrow=open;endFill=0;dashed=1;rounded=0;exitX=0.5;exitY=0;exitDx=0;exitDy=0;" parent="1" source="6" target="26" edge="1">
          <mxGeometry width="160" relative="1" as="geometry">
            <mxPoint x="542.5" y="-100" as="sourcePoint" />
            <mxPoint x="440" y="-70" as="targetPoint" />
          </mxGeometry>
        </mxCell>
        <mxCell id="18" value="" style="endArrow=none;html=1;rounded=0;entryX=0;entryY=0.5;entryDx=0;entryDy=0;" parent="1" target="6" edge="1">
          <mxGeometry width="50" height="50" relative="1" as="geometry">
            <mxPoint x="240" y="50" as="sourcePoint" />
            <mxPoint x="470" y="70" as="targetPoint" />
            <Array as="points">
              <mxPoint x="240" y="-320" />
              <mxPoint x="300" y="-320" />
            </Array>
          </mxGeometry>
        </mxCell>
        <mxCell id="19" value="" style="endArrow=none;html=1;rounded=0;entryX=0;entryY=0.5;entryDx=0;entryDy=0;" parent="1" target="8" edge="1">
          <mxGeometry width="50" height="50" relative="1" as="geometry">
            <mxPoint x="260" y="50" as="sourcePoint" />
            <mxPoint x="290" y="280" as="targetPoint" />
            <Array as="points">
              <mxPoint x="260" y="-190" />
            </Array>
          </mxGeometry>
        </mxCell>
        <mxCell id="20" value="" style="endArrow=none;html=1;rounded=0;entryX=0;entryY=0.5;entryDx=0;entryDy=0;" parent="1" target="9" edge="1">
          <mxGeometry width="50" height="50" relative="1" as="geometry">
            <mxPoint x="270" y="60" as="sourcePoint" />
            <mxPoint x="260" y="280" as="targetPoint" />
            <Array as="points">
              <mxPoint x="320" y="60" />
              <mxPoint x="320" y="-60" />
              <mxPoint x="380" y="-60" />
            </Array>
          </mxGeometry>
        </mxCell>
        <mxCell id="21" value="" style="endArrow=none;html=1;rounded=0;entryX=0;entryY=0.5;entryDx=0;entryDy=0;" parent="1" target="10" edge="1">
          <mxGeometry width="50" height="50" relative="1" as="geometry">
            <mxPoint x="270" y="100" as="sourcePoint" />
            <mxPoint x="350" y="290" as="targetPoint" />
            <Array as="points">
              <mxPoint x="360" y="100" />
              <mxPoint x="360" y="70" />
            </Array>
          </mxGeometry>
        </mxCell>
        <mxCell id="22" value="" style="endArrow=none;html=1;rounded=0;entryX=0;entryY=0.5;entryDx=0;entryDy=0;" parent="1" target="11" edge="1">
          <mxGeometry width="50" height="50" relative="1" as="geometry">
            <mxPoint x="270" y="120" as="sourcePoint" />
            <mxPoint x="310" y="300" as="targetPoint" />
            <Array as="points">
              <mxPoint x="360" y="120" />
              <mxPoint x="360" y="160" />
            </Array>
          </mxGeometry>
        </mxCell>
        <mxCell id="23" value="" style="endArrow=none;html=1;rounded=0;entryX=0;entryY=0.5;entryDx=0;entryDy=0;" parent="1" target="12" edge="1">
          <mxGeometry width="50" height="50" relative="1" as="geometry">
            <mxPoint x="270" y="160" as="sourcePoint" />
            <mxPoint x="280" y="420" as="targetPoint" />
            <Array as="points">
              <mxPoint x="320" y="160" />
              <mxPoint x="320" y="280" />
            </Array>
          </mxGeometry>
        </mxCell>
        <mxCell id="24" value="" style="endArrow=none;html=1;rounded=0;entryX=0;entryY=0.5;entryDx=0;entryDy=0;" parent="1" target="13" edge="1">
          <mxGeometry width="50" height="50" relative="1" as="geometry">
            <mxPoint x="260" y="180" as="sourcePoint" />
            <mxPoint x="270" y="647.5" as="targetPoint" />
            <Array as="points">
              <mxPoint x="260" y="300" />
              <mxPoint x="260" y="480" />
            </Array>
          </mxGeometry>
        </mxCell>
        <mxCell id="25" value="" style="endArrow=none;html=1;rounded=0;entryX=0;entryY=0.5;entryDx=0;entryDy=0;" parent="1" target="14" edge="1">
          <mxGeometry width="50" height="50" relative="1" as="geometry">
            <mxPoint x="240" y="180" as="sourcePoint" />
            <mxPoint x="360" y="570" as="targetPoint" />
            <Array as="points">
              <mxPoint x="240" y="600" />
            </Array>
          </mxGeometry>
        </mxCell>
        <mxCell id="26" value="Print countries in the world/continent/region reports" style="ellipse;whiteSpace=wrap;html=1;" parent="1" vertex="1">
          <mxGeometry x="691" y="-410" width="187.5" height="60" as="geometry" />
        </mxCell>
        <mxCell id="29" value="&lt;p style=&quot;line-height: 90%;&quot;&gt;&lt;br&gt;&lt;/p&gt;&lt;p style=&quot;line-height: 110%;&quot;&gt;World&amp;nbsp;&lt;br&gt;Database&lt;/p&gt;" style="strokeWidth=2;html=1;shape=mxgraph.flowchart.database;whiteSpace=wrap;" parent="1" vertex="1">
          <mxGeometry x="1110" y="80" width="80" height="90" as="geometry" />
        </mxCell>
        <mxCell id="30" value="&amp;lt;&amp;lt;include&amp;gt;&amp;gt;" style="html=1;verticalAlign=bottom;labelBackgroundColor=none;endArrow=open;endFill=0;dashed=1;rounded=0;entryX=0;entryY=1;entryDx=0;entryDy=0;exitX=1;exitY=0;exitDx=0;exitDy=0;" parent="1" source="8" target="31" edge="1">
          <mxGeometry x="-0.5802" y="13" width="160" relative="1" as="geometry">
            <mxPoint x="460" y="40" as="sourcePoint" />
            <mxPoint x="620" y="40" as="targetPoint" />
            <mxPoint as="offset" />
          </mxGeometry>
        </mxCell>
        <mxCell id="31" value="Print top N countries in the world/continent/region reports" style="ellipse;whiteSpace=wrap;html=1;" parent="1" vertex="1">
          <mxGeometry x="685.5" y="-300" width="190" height="70" as="geometry" />
        </mxCell>
        <mxCell id="37" value="Print cities in world/continent/region/country/district reports" style="ellipse;whiteSpace=wrap;html=1;" parent="1" vertex="1">
          <mxGeometry x="660" y="-170" width="241" height="70" as="geometry" />
        </mxCell>
        <mxCell id="40" value="&amp;lt;&amp;lt;include&amp;gt;&amp;gt;" style="html=1;verticalAlign=bottom;labelBackgroundColor=none;endArrow=open;endFill=0;dashed=1;rounded=0;entryX=0;entryY=1;entryDx=0;entryDy=0;exitX=1;exitY=0;exitDx=0;exitDy=0;" parent="1" source="9" target="37" edge="1">
          <mxGeometry width="160" relative="1" as="geometry">
            <mxPoint x="597.5" y="60" as="sourcePoint" />
            <mxPoint x="597.5" y="110" as="targetPoint" />
          </mxGeometry>
        </mxCell>
        <mxCell id="42" value="" style="endArrow=none;html=1;rounded=0;exitX=1;exitY=0.5;exitDx=0;exitDy=0;entryX=0.013;entryY=0.4;entryDx=0;entryDy=0;entryPerimeter=0;" parent="1" source="10" target="29" edge="1">
          <mxGeometry width="50" height="50" relative="1" as="geometry">
            <mxPoint x="710" y="310" as="sourcePoint" />
            <mxPoint x="760" y="260" as="targetPoint" />
            <Array as="points">
              <mxPoint x="1040" y="70" />
              <mxPoint x="1040" y="116" />
            </Array>
          </mxGeometry>
        </mxCell>
        <mxCell id="43" value="" style="endArrow=none;html=1;rounded=0;exitX=1;exitY=0.5;exitDx=0;exitDy=0;entryX=0;entryY=0.644;entryDx=0;entryDy=0;entryPerimeter=0;" parent="1" source="11" target="29" edge="1">
          <mxGeometry width="50" height="50" relative="1" as="geometry">
            <mxPoint x="680" y="430" as="sourcePoint" />
            <mxPoint x="730" y="380" as="targetPoint" />
            <Array as="points">
              <mxPoint x="1040" y="160" />
              <mxPoint x="1040" y="137" />
            </Array>
          </mxGeometry>
        </mxCell>
        <mxCell id="44" value="" style="endArrow=none;html=1;rounded=0;exitX=1;exitY=0.5;exitDx=0;exitDy=0;entryX=0;entryY=0.85;entryDx=0;entryDy=0;entryPerimeter=0;" parent="1" source="12" target="29" edge="1">
          <mxGeometry width="50" height="50" relative="1" as="geometry">
            <mxPoint x="710" y="430" as="sourcePoint" />
            <mxPoint x="1110" y="125" as="targetPoint" />
            <Array as="points">
              <mxPoint x="1110" y="280" />
            </Array>
          </mxGeometry>
        </mxCell>
        <mxCell id="45" value="" style="endArrow=none;html=1;rounded=0;exitX=1;exitY=0.5;exitDx=0;exitDy=0;entryX=0.363;entryY=1.011;entryDx=0;entryDy=0;entryPerimeter=0;" parent="1" source="13" target="29" edge="1">
          <mxGeometry width="50" height="50" relative="1" as="geometry">
            <mxPoint x="750" y="600" as="sourcePoint" />
            <mxPoint x="1120" y="190" as="targetPoint" />
            <Array as="points">
              <mxPoint x="1139" y="480" />
            </Array>
          </mxGeometry>
        </mxCell>
        <mxCell id="46" value="" style="endArrow=none;html=1;rounded=0;exitX=1;exitY=0.5;exitDx=0;exitDy=0;entryX=0.838;entryY=0.933;entryDx=0;entryDy=0;entryPerimeter=0;" parent="1" source="14" target="29" edge="1">
          <mxGeometry width="50" height="50" relative="1" as="geometry">
            <mxPoint x="1080" y="690" as="sourcePoint" />
            <mxPoint x="1130" y="640" as="targetPoint" />
            <Array as="points">
              <mxPoint x="1177" y="600" />
            </Array>
          </mxGeometry>
        </mxCell>
        <mxCell id="4nMmPLkfGjs8XgZqR72R-49" value="Print Top N cities in the world/continent/region/country/district reports" style="ellipse;whiteSpace=wrap;html=1;" vertex="1" parent="1">
          <mxGeometry x="664.25" y="-30" width="241" height="70" as="geometry" />
        </mxCell>
        <mxCell id="4nMmPLkfGjs8XgZqR72R-50" value="&amp;lt;&amp;lt;include&amp;gt;&amp;gt;" style="html=1;verticalAlign=bottom;labelBackgroundColor=none;endArrow=open;endFill=0;dashed=1;rounded=0;entryX=0.012;entryY=0.633;entryDx=0;entryDy=0;exitX=1;exitY=0;exitDx=0;exitDy=0;entryPerimeter=0;" edge="1" parent="1" source="10" target="4nMmPLkfGjs8XgZqR72R-49">
          <mxGeometry width="160" relative="1" as="geometry">
            <mxPoint x="610" y="-92" as="sourcePoint" />
            <mxPoint x="688" y="-110" as="targetPoint" />
          </mxGeometry>
        </mxCell>
        <mxCell id="4nMmPLkfGjs8XgZqR72R-51" value="" style="endArrow=none;html=1;rounded=0;exitX=0.788;exitY=0.022;exitDx=0;exitDy=0;exitPerimeter=0;" edge="1" parent="1" source="29" target="6">
          <mxGeometry width="50" height="50" relative="1" as="geometry">
            <mxPoint x="1165" y="100" as="sourcePoint" />
            <mxPoint x="622.5" y="-325" as="targetPoint" />
            <Array as="points">
              <mxPoint x="1173" y="-320" />
            </Array>
          </mxGeometry>
        </mxCell>
        <mxCell id="4nMmPLkfGjs8XgZqR72R-52" value="" style="endArrow=none;html=1;rounded=0;entryX=1;entryY=0.5;entryDx=0;entryDy=0;exitX=0.363;exitY=-0.022;exitDx=0;exitDy=0;exitPerimeter=0;" edge="1" parent="1" source="29" target="8">
          <mxGeometry width="50" height="50" relative="1" as="geometry">
            <mxPoint x="1163" y="70" as="sourcePoint" />
            <mxPoint x="664.25" y="-190" as="targetPoint" />
            <Array as="points">
              <mxPoint x="1140" y="-190" />
              <mxPoint x="953" y="-190" />
            </Array>
          </mxGeometry>
        </mxCell>
        <mxCell id="4nMmPLkfGjs8XgZqR72R-55" value="Print capital cities in the world/continent/region reports" style="ellipse;whiteSpace=wrap;html=1;" vertex="1" parent="1">
          <mxGeometry x="664.25" y="170" width="241" height="70" as="geometry" />
        </mxCell>
        <mxCell id="4nMmPLkfGjs8XgZqR72R-56" value="&amp;lt;&amp;lt;include&amp;gt;&amp;gt;" style="html=1;verticalAlign=bottom;labelBackgroundColor=none;endArrow=open;endFill=0;dashed=1;rounded=0;entryX=0;entryY=0.5;entryDx=0;entryDy=0;exitX=1;exitY=1;exitDx=0;exitDy=0;" edge="1" parent="1" source="11" target="4nMmPLkfGjs8XgZqR72R-55">
          <mxGeometry width="160" relative="1" as="geometry">
            <mxPoint x="630" y="215" as="sourcePoint" />
            <mxPoint x="686" y="180" as="targetPoint" />
          </mxGeometry>
        </mxCell>
        <mxCell id="4nMmPLkfGjs8XgZqR72R-58" value="" style="endArrow=none;html=1;rounded=0;entryX=1;entryY=0.5;entryDx=0;entryDy=0;exitX=0;exitY=0.15;exitDx=0;exitDy=0;exitPerimeter=0;" edge="1" parent="1" source="29" target="9">
          <mxGeometry width="50" height="50" relative="1" as="geometry">
            <mxPoint x="1420" y="92" as="sourcePoint" />
            <mxPoint x="920" y="-180" as="targetPoint" />
            <Array as="points">
              <mxPoint x="1110" y="-60" />
              <mxPoint x="1020" y="-60" />
            </Array>
          </mxGeometry>
        </mxCell>
        <mxCell id="4nMmPLkfGjs8XgZqR72R-59" value="Print Top N capital cities in the world/continent/region reports" style="ellipse;whiteSpace=wrap;html=1;" vertex="1" parent="1">
          <mxGeometry x="664.25" y="310" width="241" height="70" as="geometry" />
        </mxCell>
        <mxCell id="4nMmPLkfGjs8XgZqR72R-60" value="&amp;lt;&amp;lt;include&amp;gt;&amp;gt;" style="html=1;verticalAlign=bottom;labelBackgroundColor=none;endArrow=open;endFill=0;dashed=1;rounded=0;entryX=0;entryY=0;entryDx=0;entryDy=0;exitX=1;exitY=1;exitDx=0;exitDy=0;" edge="1" parent="1" source="12" target="4nMmPLkfGjs8XgZqR72R-59">
          <mxGeometry width="160" relative="1" as="geometry">
            <mxPoint x="630" y="320" as="sourcePoint" />
            <mxPoint x="683" y="344" as="targetPoint" />
          </mxGeometry>
        </mxCell>
        <mxCell id="4nMmPLkfGjs8XgZqR72R-61" value="Print population of living in cities or not in cities for continent/region/country reports" style="ellipse;whiteSpace=wrap;html=1;" vertex="1" parent="1">
          <mxGeometry x="664.25" y="400" width="241" height="70" as="geometry" />
        </mxCell>
        <mxCell id="4nMmPLkfGjs8XgZqR72R-62" value="Print total population by a continent/world/region/country/district/city reports" style="ellipse;whiteSpace=wrap;html=1;" vertex="1" parent="1">
          <mxGeometry x="664.25" y="500" width="241" height="70" as="geometry" />
        </mxCell>
        <mxCell id="4nMmPLkfGjs8XgZqR72R-63" value="Print Language Statistics Report" style="ellipse;whiteSpace=wrap;html=1;" vertex="1" parent="1">
          <mxGeometry x="664.25" y="630" width="241" height="70" as="geometry" />
        </mxCell>
        <mxCell id="4nMmPLkfGjs8XgZqR72R-64" value="&amp;lt;&amp;lt;include&amp;gt;&amp;gt;" style="html=1;verticalAlign=bottom;labelBackgroundColor=none;endArrow=open;endFill=0;dashed=1;rounded=0;entryX=0;entryY=0.5;entryDx=0;entryDy=0;exitX=1;exitY=0;exitDx=0;exitDy=0;" edge="1" parent="1" source="13" target="4nMmPLkfGjs8XgZqR72R-61">
          <mxGeometry width="160" relative="1" as="geometry">
            <mxPoint x="540" y="370" as="sourcePoint" />
            <mxPoint x="638" y="389" as="targetPoint" />
          </mxGeometry>
        </mxCell>
        <mxCell id="4nMmPLkfGjs8XgZqR72R-65" value="&amp;lt;&amp;lt;include&amp;gt;&amp;gt;" style="html=1;verticalAlign=bottom;labelBackgroundColor=none;endArrow=open;endFill=0;dashed=1;rounded=0;entryX=0;entryY=0.5;entryDx=0;entryDy=0;exitX=1;exitY=1;exitDx=0;exitDy=0;" edge="1" parent="1" source="13" target="4nMmPLkfGjs8XgZqR72R-62">
          <mxGeometry width="160" relative="1" as="geometry">
            <mxPoint x="600" y="670" as="sourcePoint" />
            <mxPoint x="698" y="689" as="targetPoint" />
          </mxGeometry>
        </mxCell>
        <mxCell id="4nMmPLkfGjs8XgZqR72R-66" value="&amp;lt;&amp;lt;include&amp;gt;&amp;gt;" style="html=1;verticalAlign=bottom;labelBackgroundColor=none;endArrow=open;endFill=0;dashed=1;rounded=0;entryX=0;entryY=0.5;entryDx=0;entryDy=0;exitX=1;exitY=1;exitDx=0;exitDy=0;" edge="1" parent="1" source="14" target="4nMmPLkfGjs8XgZqR72R-63">
          <mxGeometry width="160" relative="1" as="geometry">
            <mxPoint x="620" y="720" as="sourcePoint" />
            <mxPoint x="718" y="739" as="targetPoint" />
          </mxGeometry>
        </mxCell>
      </root>
    </mxGraphModel>
  </diagram>
</mxfile>
